<mxfile host="app.diagrams.net" modified="2021-01-23T13:20:12.208Z" agent="5.0 (Windows NT 10.0; Win64; x64) AppleWebKit/537.36 (KHTML, like Gecko) Chrome/87.0.4280.141 Safari/537.36" etag="H4pio5TvD5LyiwmaoJZS" version="14.2.6" type="github">
  <diagram name="Page-1" id="e7e014a7-5840-1c2e-5031-d8a46d1fe8dd">
    <mxGraphModel dx="4629" dy="1920" grid="1" gridSize="10" guides="1" tooltips="1" connect="1" arrows="1" fold="1" page="1" pageScale="1" pageWidth="1169" pageHeight="826" background="#ffffff" math="0" shadow="0">
      <root>
        <mxCell id="0" />
        <mxCell id="1" parent="0" />
        <mxCell id="2" value="Користувач" style="swimlane;whiteSpace=wrap;startSize=23;" parent="1" vertex="1">
          <mxGeometry x="-250" y="128" width="590" height="1582" as="geometry" />
        </mxCell>
        <mxCell id="5" value="" style="ellipse;shape=startState;fillColor=#000000;strokeColor=#ff0000;" parent="2" vertex="1">
          <mxGeometry x="100" y="40" width="30" height="30" as="geometry" />
        </mxCell>
        <mxCell id="6" value="" style="edgeStyle=elbowEdgeStyle;elbow=horizontal;verticalAlign=bottom;endArrow=open;endSize=8;strokeColor=#FF0000;endFill=1;rounded=0" parent="2" source="5" target="7" edge="1">
          <mxGeometry x="100" y="40" as="geometry">
            <mxPoint x="115" y="110" as="targetPoint" />
          </mxGeometry>
        </mxCell>
        <mxCell id="7" value="Натискає на кнопку&#xa;&quot;Купити&quot;" style="" parent="2" vertex="1">
          <mxGeometry x="60" y="110" width="110" height="50" as="geometry" />
        </mxCell>
        <mxCell id="8" value="Переадресація на&#xa;телеграм бота" style="" parent="2" vertex="1">
          <mxGeometry x="60" y="220" width="110" height="50" as="geometry" />
        </mxCell>
        <mxCell id="9" value="" style="endArrow=open;strokeColor=#FF0000;endFill=1;rounded=0" parent="2" source="7" target="8" edge="1">
          <mxGeometry relative="1" as="geometry" />
        </mxCell>
        <mxCell id="21" value="Продовжує дію" style="rhombus;fillColor=#ffffc0;strokeColor=#ff0000;" parent="2" vertex="1">
          <mxGeometry x="60" y="312" width="136" height="68" as="geometry" />
        </mxCell>
        <mxCell id="dXfKMThPxU6cdJMetTDG-68" style="edgeStyle=orthogonalEdgeStyle;rounded=0;orthogonalLoop=1;jettySize=auto;html=1;" edge="1" parent="2" source="dXfKMThPxU6cdJMetTDG-44" target="dXfKMThPxU6cdJMetTDG-61">
          <mxGeometry relative="1" as="geometry" />
        </mxCell>
        <mxCell id="dXfKMThPxU6cdJMetTDG-44" value="Підбір моніторів" style="rhombus;fillColor=#ffffc0;strokeColor=#ff0000;fontSize=12;" vertex="1" parent="2">
          <mxGeometry x="180" y="393.11" width="140" height="77.78" as="geometry" />
        </mxCell>
        <mxCell id="dXfKMThPxU6cdJMetTDG-69" style="edgeStyle=orthogonalEdgeStyle;rounded=0;orthogonalLoop=1;jettySize=auto;html=1;entryX=0.5;entryY=0;entryDx=0;entryDy=0;" edge="1" parent="2" source="dXfKMThPxU6cdJMetTDG-61" target="dXfKMThPxU6cdJMetTDG-62">
          <mxGeometry relative="1" as="geometry" />
        </mxCell>
        <mxCell id="dXfKMThPxU6cdJMetTDG-61" value="Інформація про&#xa;магазин" style="rhombus;fillColor=#ffffc0;strokeColor=#ff0000;" vertex="1" parent="2">
          <mxGeometry x="180" y="852" width="140" height="78" as="geometry" />
        </mxCell>
        <mxCell id="dXfKMThPxU6cdJMetTDG-70" style="edgeStyle=orthogonalEdgeStyle;rounded=0;orthogonalLoop=1;jettySize=auto;html=1;entryX=0.5;entryY=0;entryDx=0;entryDy=0;" edge="1" parent="2" source="dXfKMThPxU6cdJMetTDG-62" target="dXfKMThPxU6cdJMetTDG-67">
          <mxGeometry relative="1" as="geometry" />
        </mxCell>
        <mxCell id="dXfKMThPxU6cdJMetTDG-62" value="Контакти" style="rhombus;fillColor=#ffffc0;strokeColor=#ff0000;" vertex="1" parent="2">
          <mxGeometry x="180" y="1046.89" width="140" height="77.78" as="geometry" />
        </mxCell>
        <mxCell id="dXfKMThPxU6cdJMetTDG-45" style="edgeStyle=orthogonalEdgeStyle;rounded=0;orthogonalLoop=1;jettySize=auto;html=1;entryX=0.5;entryY=0;entryDx=0;entryDy=0;" edge="1" parent="2" source="21" target="dXfKMThPxU6cdJMetTDG-44">
          <mxGeometry relative="1" as="geometry">
            <mxPoint x="470" y="391.9999999999999" as="targetPoint" />
            <Array as="points">
              <mxPoint x="250" y="346" />
            </Array>
          </mxGeometry>
        </mxCell>
        <mxCell id="dXfKMThPxU6cdJMetTDG-67" value="Адреса" style="rhombus;fillColor=#ffffc0;strokeColor=#ff0000;" vertex="1" parent="2">
          <mxGeometry x="180" y="1272" width="140" height="77.78" as="geometry" />
        </mxCell>
        <mxCell id="dXfKMThPxU6cdJMetTDG-109" value="" style="endArrow=open;strokeColor=#FF0000;endFill=1;rounded=0;entryX=0;entryY=0.5;entryDx=0;entryDy=0;exitX=1;exitY=0.5;exitDx=0;exitDy=0;" edge="1" parent="2">
          <mxGeometry relative="1" as="geometry">
            <mxPoint x="320" y="1310.06" as="sourcePoint" />
            <mxPoint x="757.75" y="1310.0600000000004" as="targetPoint" />
          </mxGeometry>
        </mxCell>
        <mxCell id="dXfKMThPxU6cdJMetTDG-116" value="" style="ellipse;shape=startState;fillColor=#000000;strokeColor=#ff0000;" vertex="1" parent="2">
          <mxGeometry x="113" y="1472" width="30" height="30" as="geometry" />
        </mxCell>
        <mxCell id="3" value="Телеграм Бот" style="swimlane;whiteSpace=wrap;startSize=23;" parent="1" vertex="1">
          <mxGeometry x="450" y="130" width="1300" height="1590" as="geometry" />
        </mxCell>
        <mxCell id="dXfKMThPxU6cdJMetTDG-105" style="edgeStyle=orthogonalEdgeStyle;rounded=0;orthogonalLoop=1;jettySize=auto;html=1;entryX=0.5;entryY=0;entryDx=0;entryDy=0;fontSize=12;" edge="1" parent="3" source="13" target="15">
          <mxGeometry relative="1" as="geometry" />
        </mxCell>
        <mxCell id="13" value="" style="ellipse;shape=startState;fillColor=#000000;strokeColor=#ff0000;" parent="3" vertex="1">
          <mxGeometry x="70.5" y="120" width="30" height="30" as="geometry" />
        </mxCell>
        <mxCell id="15" value="Надає список&#xa;команд" style="" parent="3" vertex="1">
          <mxGeometry x="30.5" y="220" width="110" height="50" as="geometry" />
        </mxCell>
        <mxCell id="20" value="" style="endArrow=open;strokeColor=#FF0000;endFill=1;rounded=0;exitX=1;exitY=0.5;exitDx=0;exitDy=0;" parent="3" source="8" edge="1">
          <mxGeometry relative="1" as="geometry">
            <mxPoint x="-144" y="244.5" as="sourcePoint" />
            <mxPoint x="30.5" y="244.5" as="targetPoint" />
          </mxGeometry>
        </mxCell>
        <mxCell id="dXfKMThPxU6cdJMetTDG-72" value="Надає детальну&#xa;інформацію про&#xa;магазин" style="" vertex="1" parent="3">
          <mxGeometry x="57.75" y="860" width="118.8" height="54" as="geometry" />
        </mxCell>
        <mxCell id="dXfKMThPxU6cdJMetTDG-74" value="Надає список &#xa;телефонів&#xa;підприємства" style="" vertex="1" parent="3">
          <mxGeometry x="57.75" y="1059" width="122.25" height="50" as="geometry" />
        </mxCell>
        <mxCell id="dXfKMThPxU6cdJMetTDG-79" style="edgeStyle=orthogonalEdgeStyle;rounded=0;orthogonalLoop=1;jettySize=auto;html=1;exitX=1;exitY=0.5;exitDx=0;exitDy=0;entryX=0;entryY=0.5;entryDx=0;entryDy=0;fontSize=12;" edge="1" parent="3">
          <mxGeometry relative="1" as="geometry">
            <mxPoint x="174" y="425" as="sourcePoint" />
            <mxPoint x="275.5" y="425" as="targetPoint" />
          </mxGeometry>
        </mxCell>
        <mxCell id="dXfKMThPxU6cdJMetTDG-84" style="edgeStyle=orthogonalEdgeStyle;rounded=0;orthogonalLoop=1;jettySize=auto;html=1;entryX=0;entryY=0.5;entryDx=0;entryDy=0;fontSize=12;" edge="1" parent="3" source="dXfKMThPxU6cdJMetTDG-82">
          <mxGeometry relative="1" as="geometry">
            <mxPoint x="485.5" y="425" as="targetPoint" />
          </mxGeometry>
        </mxCell>
        <mxCell id="dXfKMThPxU6cdJMetTDG-97" style="edgeStyle=orthogonalEdgeStyle;rounded=0;orthogonalLoop=1;jettySize=auto;html=1;entryX=0;entryY=0.5;entryDx=0;entryDy=0;fontSize=12;" edge="1" parent="3" source="dXfKMThPxU6cdJMetTDG-82" target="dXfKMThPxU6cdJMetTDG-96">
          <mxGeometry relative="1" as="geometry" />
        </mxCell>
        <mxCell id="dXfKMThPxU6cdJMetTDG-82" value="Ігрові монітори or&lt;br&gt;&lt;span&gt;Монітори для офісу&lt;/span&gt;" style="rhombus;whiteSpace=wrap;html=1;fontSize=12;" vertex="1" parent="3">
          <mxGeometry x="275.5" y="385" width="154.5" height="80" as="geometry" />
        </mxCell>
        <mxCell id="dXfKMThPxU6cdJMetTDG-88" value="&lt;span&gt;Відкривається&lt;/span&gt;&lt;br style=&quot;padding: 0px ; margin: 0px&quot;&gt;&lt;span&gt;список категорій&lt;/span&gt;&lt;br style=&quot;padding: 0px ; margin: 0px&quot;&gt;&lt;span&gt;моніторів&lt;/span&gt;" style="rounded=0;whiteSpace=wrap;html=1;fontSize=12;" vertex="1" parent="3">
          <mxGeometry x="45.5" y="400" width="134.5" height="60" as="geometry" />
        </mxCell>
        <mxCell id="dXfKMThPxU6cdJMetTDG-95" style="edgeStyle=orthogonalEdgeStyle;rounded=0;orthogonalLoop=1;jettySize=auto;html=1;entryX=0;entryY=0.5;entryDx=0;entryDy=0;fontSize=12;" edge="1" parent="3" source="dXfKMThPxU6cdJMetTDG-89" target="dXfKMThPxU6cdJMetTDG-92">
          <mxGeometry relative="1" as="geometry" />
        </mxCell>
        <mxCell id="dXfKMThPxU6cdJMetTDG-89" value="FullHD or&lt;br&gt;UltraHD" style="rhombus;whiteSpace=wrap;html=1;fontSize=12;" vertex="1" parent="3">
          <mxGeometry x="485.5" y="385" width="154.5" height="80" as="geometry" />
        </mxCell>
        <mxCell id="dXfKMThPxU6cdJMetTDG-92" value="Відкривається список&lt;br style=&quot;padding: 0px ; margin: 0px&quot;&gt;моніторів з розширенням UltraHD&amp;nbsp;" style="rounded=0;whiteSpace=wrap;html=1;fontSize=12;" vertex="1" parent="3">
          <mxGeometry x="615.5" y="480" width="134.5" height="60" as="geometry" />
        </mxCell>
        <mxCell id="dXfKMThPxU6cdJMetTDG-101" style="edgeStyle=orthogonalEdgeStyle;rounded=0;orthogonalLoop=1;jettySize=auto;html=1;entryX=0;entryY=0.5;entryDx=0;entryDy=0;fontSize=12;" edge="1" parent="3" source="dXfKMThPxU6cdJMetTDG-96" target="dXfKMThPxU6cdJMetTDG-98">
          <mxGeometry relative="1" as="geometry" />
        </mxCell>
        <mxCell id="dXfKMThPxU6cdJMetTDG-102" style="edgeStyle=orthogonalEdgeStyle;rounded=0;orthogonalLoop=1;jettySize=auto;html=1;entryX=0;entryY=0.5;entryDx=0;entryDy=0;fontSize=12;" edge="1" parent="3" source="dXfKMThPxU6cdJMetTDG-96" target="dXfKMThPxU6cdJMetTDG-100">
          <mxGeometry relative="1" as="geometry" />
        </mxCell>
        <mxCell id="dXfKMThPxU6cdJMetTDG-103" style="edgeStyle=orthogonalEdgeStyle;rounded=0;orthogonalLoop=1;jettySize=auto;html=1;entryX=0;entryY=0.5;entryDx=0;entryDy=0;fontSize=12;" edge="1" parent="3" source="dXfKMThPxU6cdJMetTDG-96" target="dXfKMThPxU6cdJMetTDG-99">
          <mxGeometry relative="1" as="geometry" />
        </mxCell>
        <mxCell id="dXfKMThPxU6cdJMetTDG-96" value="HD or FullHD or&lt;br&gt;UltraHD" style="rhombus;whiteSpace=wrap;html=1;fontSize=12;" vertex="1" parent="3">
          <mxGeometry x="405.5" y="675.89" width="154.5" height="80" as="geometry" />
        </mxCell>
        <mxCell id="dXfKMThPxU6cdJMetTDG-98" value="&lt;span&gt;Відкривається список&lt;/span&gt;&lt;br style=&quot;padding: 0px ; margin: 0px&quot;&gt;&lt;span&gt;моніторів з розширенням FullHD&amp;nbsp;&lt;/span&gt;" style="rounded=0;whiteSpace=wrap;html=1;fontSize=12;" vertex="1" parent="3">
          <mxGeometry x="615.5" y="685.89" width="134.5" height="60" as="geometry" />
        </mxCell>
        <mxCell id="dXfKMThPxU6cdJMetTDG-99" value="&lt;span&gt;Відкривається список&lt;/span&gt;&lt;br style=&quot;padding: 0px ; margin: 0px&quot;&gt;&lt;span&gt;моніторів з розширенням YltraHD&amp;nbsp;&lt;/span&gt;" style="rounded=0;whiteSpace=wrap;html=1;fontSize=12;" vertex="1" parent="3">
          <mxGeometry x="535.5" y="780" width="134.5" height="60" as="geometry" />
        </mxCell>
        <mxCell id="dXfKMThPxU6cdJMetTDG-100" value="&lt;span&gt;Відкривається список&lt;/span&gt;&lt;br style=&quot;padding: 0px ; margin: 0px&quot;&gt;&lt;span&gt;моніторів з розширенням HD&amp;nbsp;&lt;/span&gt;" style="rounded=0;whiteSpace=wrap;html=1;fontSize=12;" vertex="1" parent="3">
          <mxGeometry x="535.5" y="590" width="134.5" height="60" as="geometry" />
        </mxCell>
        <mxCell id="dXfKMThPxU6cdJMetTDG-112" style="edgeStyle=orthogonalEdgeStyle;rounded=0;orthogonalLoop=1;jettySize=auto;html=1;entryX=0;entryY=0.5;entryDx=0;entryDy=0;fontSize=12;" edge="1" parent="3" source="dXfKMThPxU6cdJMetTDG-107" target="dXfKMThPxU6cdJMetTDG-110">
          <mxGeometry relative="1" as="geometry" />
        </mxCell>
        <mxCell id="dXfKMThPxU6cdJMetTDG-113" style="edgeStyle=orthogonalEdgeStyle;rounded=0;orthogonalLoop=1;jettySize=auto;html=1;entryX=0;entryY=0.5;entryDx=0;entryDy=0;fontSize=12;" edge="1" parent="3" source="dXfKMThPxU6cdJMetTDG-107" target="dXfKMThPxU6cdJMetTDG-111">
          <mxGeometry relative="1" as="geometry" />
        </mxCell>
        <mxCell id="dXfKMThPxU6cdJMetTDG-107" value="Харків or Київ" style="rhombus;whiteSpace=wrap;html=1;fontSize=12;" vertex="1" parent="3">
          <mxGeometry x="57" y="1267.78" width="154.5" height="80" as="geometry" />
        </mxCell>
        <mxCell id="dXfKMThPxU6cdJMetTDG-110" value="Адреси у Харкові" style="" vertex="1" parent="3">
          <mxGeometry x="320" y="1282.7800000000002" width="122.25" height="50" as="geometry" />
        </mxCell>
        <mxCell id="dXfKMThPxU6cdJMetTDG-111" value="Адреси у Киеві" style="" vertex="1" parent="3">
          <mxGeometry x="190" y="1390" width="122.25" height="50" as="geometry" />
        </mxCell>
        <mxCell id="24" value="" style="endArrow=open;strokeColor=#FF0000;endFill=1;rounded=0;exitX=0.5;exitY=1;exitDx=0;exitDy=0;entryX=0.5;entryY=0;entryDx=0;entryDy=0;" parent="1" source="15" target="21" edge="1">
          <mxGeometry relative="1" as="geometry">
            <mxPoint x="574.5" y="373" as="sourcePoint" />
          </mxGeometry>
        </mxCell>
        <mxCell id="dXfKMThPxU6cdJMetTDG-48" value="" style="endArrow=open;strokeColor=#FF0000;endFill=1;rounded=0;exitX=1;exitY=0.5;exitDx=0;exitDy=0;" edge="1" parent="1" source="dXfKMThPxU6cdJMetTDG-44" target="dXfKMThPxU6cdJMetTDG-88">
          <mxGeometry relative="1" as="geometry">
            <mxPoint x="60" y="555" as="sourcePoint" />
            <mxPoint x="490" y="555" as="targetPoint" />
          </mxGeometry>
        </mxCell>
        <mxCell id="dXfKMThPxU6cdJMetTDG-73" value="" style="endArrow=open;strokeColor=#FF0000;endFill=1;rounded=0;entryX=0;entryY=0.5;entryDx=0;entryDy=0;exitX=1;exitY=0.5;exitDx=0;exitDy=0;" edge="1" parent="1" target="dXfKMThPxU6cdJMetTDG-72" source="dXfKMThPxU6cdJMetTDG-61">
          <mxGeometry relative="1" as="geometry">
            <mxPoint x="70" y="664" as="sourcePoint" />
            <mxPoint x="355" y="670.55" as="targetPoint" />
          </mxGeometry>
        </mxCell>
        <mxCell id="dXfKMThPxU6cdJMetTDG-75" value="" style="endArrow=open;strokeColor=#FF0000;endFill=1;rounded=0;entryX=0;entryY=0.5;entryDx=0;entryDy=0;exitX=1;exitY=0.5;exitDx=0;exitDy=0;" edge="1" parent="1" target="dXfKMThPxU6cdJMetTDG-74" source="dXfKMThPxU6cdJMetTDG-62">
          <mxGeometry relative="1" as="geometry">
            <mxPoint x="70" y="782.7799999999999" as="sourcePoint" />
            <mxPoint x="345" y="780.4399999999999" as="targetPoint" />
          </mxGeometry>
        </mxCell>
        <mxCell id="dXfKMThPxU6cdJMetTDG-90" value="&lt;span&gt;Відкривається список&lt;/span&gt;&lt;br style=&quot;padding: 0px ; margin: 0px&quot;&gt;&lt;span&gt;моніторів з розширенням FullHD&amp;nbsp;&lt;/span&gt;" style="rounded=0;whiteSpace=wrap;html=1;fontSize=12;" vertex="1" parent="1">
          <mxGeometry x="1130" y="520" width="134.5" height="60" as="geometry" />
        </mxCell>
        <mxCell id="dXfKMThPxU6cdJMetTDG-93" style="edgeStyle=orthogonalEdgeStyle;rounded=0;orthogonalLoop=1;jettySize=auto;html=1;fontSize=12;" edge="1" parent="1" source="dXfKMThPxU6cdJMetTDG-89">
          <mxGeometry relative="1" as="geometry">
            <mxPoint x="1130" y="555" as="targetPoint" />
          </mxGeometry>
        </mxCell>
        <mxCell id="dXfKMThPxU6cdJMetTDG-115" style="edgeStyle=orthogonalEdgeStyle;rounded=0;orthogonalLoop=1;jettySize=auto;html=1;fontSize=12;" edge="1" parent="1" source="21">
          <mxGeometry relative="1" as="geometry">
            <mxPoint x="-121.99999999999955" y="1606.0000610351562" as="targetPoint" />
          </mxGeometry>
        </mxCell>
      </root>
    </mxGraphModel>
  </diagram>
</mxfile>
